<svg xmlns="http://www.w3.org/2000/svg" width="350" height="632.355" viewBox="0 0 658.432 632.355">
  <path id="Caminho_362" data-name="Caminho 362" d="M500,225.6c69.12-15.263,143.5-41.86,206.9-10.371,66.5,33.029,114.86,103.022,127.075,176.257,11.6,69.569-44.475,128.432-65,195.911-21.114,69.422-2.683,156.3-56.817,204.617C657.326,840.957,573.026,835.821,500,827.482c-66.794-7.627-131.1-33.706-179.656-80.207-44.641-42.755-52.993-106.811-75.655-164.32-24.6-62.439-85.511-123.176-62.472-186.21,23.111-63.231,108.822-70.852,168.1-102.774C399.819,267.309,445.092,237.725,500,225.6" transform="translate(-177.106 -200.525)" fill="rgba(2,114,212,0.8)"/>
</svg>
